HIERARCHY
ROOT hips
{
  OFFSET -0.00735851563513279 12.18665635585785 0.12248523347079754
  CHANNELS 6 Xposition Yposition Zposition Yrotation Xrotation Zrotation
  JOINT spine
  {
    OFFSET 1.0244548320770264e-7 0.5955291986465454 0
    CHANNELS 3 Yrotation Xrotation Zrotation
    JOINT chest
    {
      OFFSET 0 1.2719063864449713 0
      CHANNELS 3 Yrotation Xrotation Zrotation
      JOINT upperChest
      {
        OFFSET 0 1.490802666915459 0
        CHANNELS 3 Yrotation Xrotation Zrotation
        JOINT neck
        {
          OFFSET 0 1.3131953345263365 0
          CHANNELS 3 Yrotation Xrotation Zrotation
          JOINT head
          {
            OFFSET 0 0.8653679716847534 0
            CHANNELS 3 Yrotation Xrotation Zrotation
            JOINT leftEye
            {
              OFFSET 0.20629723300226033 0.6721053123474121 0.3036841657012701
              CHANNELS 3 Yrotation Xrotation Zrotation
              End Site
              {
                OFFSET 0.20629723300226033 0.6721053123474121 0.3036841657012701
              }
            }
            JOINT rightEye
            {
              OFFSET -0.20629652100615203 0.6721066236495972 0.30368443205952644
              CHANNELS 3 Yrotation Xrotation Zrotation
              End Site
              {
                OFFSET -0.20629652100615203 0.6721066236495972 0.30368443205952644
              }
            }
          }
        }
        JOINT leftShoulder
        {
          OFFSET 0.24624172446783632 0.959903359413147 0
          CHANNELS 3 Yrotation Xrotation Zrotation
          JOINT leftUpperArm
          {
            OFFSET 0.9650355761446514 0 0
            CHANNELS 3 Yrotation Xrotation Zrotation
            JOINT leftLowerArm
            {
              OFFSET 2.4419134471639827 0 0
              CHANNELS 3 Yrotation Xrotation Zrotation
              JOINT leftHand
              {
                OFFSET 2.3874557408809456 0 0
                CHANNELS 3 Yrotation Xrotation Zrotation
                JOINT leftIndexProximal
                {
                  OFFSET 0.7029628753662109 0.06118142604827881 0.23586585000157356
                  CHANNELS 3 Yrotation Xrotation Zrotation
                  JOINT leftIndexIntermediate
                  {
                    OFFSET 0.36102771759033203 -0.001475214958190918 0.056637559086084366
                    CHANNELS 3 Yrotation Xrotation Zrotation
                    JOINT leftIndexDistal
                    {
                      OFFSET 0.22344785928726196 -0.007408857345581055 0.02531452476978302
                      CHANNELS 3 Yrotation Xrotation Zrotation
                      End Site
                      {
                        OFFSET 0.22344785928726196 -0.007408857345581055 0.02531452476978302
                      }
                    }
                  }
                }
                JOINT leftLittleProximal
                {
                  OFFSET 0.6958752870559692 0.034375786781311035 -0.29472956992685795
                  CHANNELS 3 Yrotation Xrotation Zrotation
                  JOINT leftLittleIntermediate
                  {
                    OFFSET 0.34538060426712036 -0.0030041933059692383 0.00024324655532836914
                    CHANNELS 3 Yrotation Xrotation Zrotation
                    JOINT leftLittleDistal
                    {
                      OFFSET 0.19865047931671143 0.00746917724609375 -0.010377676226198673
                      CHANNELS 3 Yrotation Xrotation Zrotation
                      End Site
                      {
                        OFFSET 0.19865047931671143 0.00746917724609375 -0.010377676226198673
                      }
                    }
                  }
                }
                JOINT leftMiddleProximal
                {
                  OFFSET 0.7272291779518127 0.09209799766540527 0.05257739871740341
                  CHANNELS 3 Yrotation Xrotation Zrotation
                  JOINT leftMiddleIntermediate
                  {
                    OFFSET 0.40590834617614746 -0.014838695526123047 0.026817932724952698
                    CHANNELS 3 Yrotation Xrotation Zrotation
                    JOINT leftMiddleDistal
                    {
                      OFFSET 0.2495119571685791 -0.026458144187927246 0.010310646146535873
                      CHANNELS 3 Yrotation Xrotation Zrotation
                      End Site
                      {
                        OFFSET 0.2495119571685791 -0.026458144187927246 0.010310646146535873
                      }
                    }
                  }
                }
                JOINT leftRingProximal
                {
                  OFFSET 0.7334893345832825 0.09136629104614258 -0.1205735495314002
                  CHANNELS 3 Yrotation Xrotation Zrotation
                  JOINT leftRingIntermediate
                  {
                    OFFSET 0.3775520920753479 -0.005917906761169434 0.001896639820188284
                    CHANNELS 3 Yrotation Xrotation Zrotation
                    JOINT leftRingDistal
                    {
                      OFFSET 0.2177620530128479 0.007703900337219238 0.0027355607599020004
                      CHANNELS 3 Yrotation Xrotation Zrotation
                      End Site
                      {
                        OFFSET 0.2177620530128479 0.007703900337219238 0.0027355607599020004
                      }
                    }
                  }
                }
                JOINT leftThumbProximal
                {
                  OFFSET 0.02235114574432373 -0.07603192329406738 0.1950724683701992
                  CHANNELS 3 Yrotation Xrotation Zrotation
                  JOINT leftThumbIntermediate
                  {
                    OFFSET 0.3551589846611023 -0.02970755100250244 0.36741212010383606
                    CHANNELS 3 Yrotation Xrotation Zrotation
                    JOINT leftThumbDistal
                    {
                      OFFSET 0.23456048965454102 -0.016631245613098145 0.2093813568353653
                      CHANNELS 3 Yrotation Xrotation Zrotation
                      End Site
                      {
                        OFFSET 0.23456048965454102 -0.016631245613098145 0.2093813568353653
                      }
                    }
                  }
                }
              }
            }
          }
        }
        JOINT rightShoulder
        {
          OFFSET -0.24624088185373694 0.9600239992141724 0
          CHANNELS 3 Yrotation Xrotation Zrotation
          JOINT rightUpperArm
          {
            OFFSET -0.9650300767908009 0 0
            CHANNELS 3 Yrotation Xrotation Zrotation
            JOINT rightLowerArm
            {
              OFFSET -2.4420125187833426 0 0
              CHANNELS 3 Yrotation Xrotation Zrotation
              JOINT rightHand
              {
                OFFSET -2.3874255620910265 0 0
                CHANNELS 3 Yrotation Xrotation Zrotation
                JOINT rightIndexProximal
                {
                  OFFSET -0.7029609084129333 0.06117355823516846 0.23587234504520893
                  CHANNELS 3 Yrotation Xrotation Zrotation
                  JOINT rightIndexIntermediate
                  {
                    OFFSET -0.3610270619392395 -0.0014804601669311523 0.05664427950978279
                    CHANNELS 3 Yrotation Xrotation Zrotation
                    JOINT rightIndexDistal
                    {
                      OFFSET -0.2234485149383545 -0.0074127912521362305 0.025317884981632233
                      CHANNELS 3 Yrotation Xrotation Zrotation
                      End Site
                      {
                        OFFSET -0.2234485149383545 -0.0074127912521362305 0.025317884981632233
                      }
                    }
                  }
                }
                JOINT rightLittleProximal
                {
                  OFFSET -0.6958779096603394 0.034366607666015625 -0.29472311586141586
                  CHANNELS 3 Yrotation Xrotation Zrotation
                  JOINT rightLittleIntermediate
                  {
                    OFFSET -0.3453786373138428 -0.003008127212524414 0.00025422871112823486
                    CHANNELS 3 Yrotation Xrotation Zrotation
                    JOINT rightLittleDistal
                    {
                      OFFSET -0.19865179061889648 0.00746917724609375 -0.010371447540819645
                      CHANNELS 3 Yrotation Xrotation Zrotation
                      End Site
                      {
                        OFFSET -0.19865179061889648 0.00746917724609375 -0.010371447540819645
                      }
                    }
                  }
                }
                JOINT rightMiddleProximal
                {
                  OFFSET -0.7272304892539978 0.09209012985229492 0.05258418060839176
                  CHANNELS 3 Yrotation Xrotation Zrotation
                  JOINT rightMiddleIntermediate
                  {
                    OFFSET -0.4059063792228699 -0.014843940734863281 0.026821313425898552
                    CHANNELS 3 Yrotation Xrotation Zrotation
                    JOINT rightMiddleDistal
                    {
                      OFFSET -0.24951326847076416 -0.026460766792297363 0.010313207283616066
                      CHANNELS 3 Yrotation Xrotation Zrotation
                      End Site
                      {
                        OFFSET -0.24951326847076416 -0.026460766792297363 0.010313207283616066
                      }
                    }
                  }
                }
                JOINT rightRingProximal
                {
                  OFFSET -0.7334906458854675 0.09135580062866211 -0.12056719791144133
                  CHANNELS 3 Yrotation Xrotation Zrotation
                  JOINT rightRingIntermediate
                  {
                    OFFSET -0.37755340337753296 -0.005923151969909668 0.0019026175141334534
                    CHANNELS 3 Yrotation Xrotation Zrotation
                    JOINT rightRingDistal
                    {
                      OFFSET -0.21775943040847778 0.007701277732849121 0.0027383523993194103
                      CHANNELS 3 Yrotation Xrotation Zrotation
                      End Site
                      {
                        OFFSET -0.21775943040847778 0.007701277732849121 0.0027383523993194103
                      }
                    }
                  }
                }
                JOINT rightThumbProximal
                {
                  OFFSET -0.022347867488861084 -0.07603061199188232 0.19507363624870777
                  CHANNELS 3 Yrotation Xrotation Zrotation
                  JOINT rightThumbIntermediate
                  {
                    OFFSET -0.3550455570220947 -0.029461026191711426 0.36754218488931656
                    CHANNELS 3 Yrotation Xrotation Zrotation
                    JOINT rightThumbDistal
                    {
                      OFFSET -0.23451131582260132 -0.016489624977111816 0.20944765955209732
                      CHANNELS 3 Yrotation Xrotation Zrotation
                      End Site
                      {
                        OFFSET -0.23451131582260132 -0.016489624977111816 0.20944765955209732
                      }
                    }
                  }
                }
              }
            }
          }
        }
      }
    }
  }
  JOINT leftUpperLeg
  {
    OFFSET 0.8483456987887621 -0.42556869983673096 0
    CHANNELS 3 Yrotation Xrotation Zrotation
    JOINT leftLowerLeg
    {
      OFFSET 0 -4.6702112872869534 0
      CHANNELS 3 Yrotation Xrotation Zrotation
      JOINT leftFoot
      {
        OFFSET -0.13096565008163452 -5.202569782733917 -0.2985280640423298
        CHANNELS 3 Yrotation Xrotation Zrotation
        JOINT leftToes
        {
          OFFSET 0.01423943042755127 -0.7568342834711075 1.213271364569664
          CHANNELS 3 Yrotation Xrotation Zrotation
          End Site
          {
            OFFSET 0.01423943042755127 -0.7568342834711075 1.213271364569664
          }
        }
      }
    }
  }
  JOINT rightUpperLeg
  {
    OFFSET -0.8483468051999807 -0.42556607723236084 0
    CHANNELS 3 Yrotation Xrotation Zrotation
    JOINT rightLowerLeg
    {
      OFFSET 0 -4.670219469177788 0
      CHANNELS 3 Yrotation Xrotation Zrotation
      JOINT rightFoot
      {
        OFFSET 0.13097601756453514 -5.202573716640472 -0.29853164963424206
        CHANNELS 3 Yrotation Xrotation Zrotation
        JOINT rightToes
        {
          OFFSET -0.014232628047466278 -0.7568355947732925 1.213272675871849
          CHANNELS 3 Yrotation Xrotation Zrotation
          End Site
          {
            OFFSET -0.014232628047466278 -0.7568355947732925 1.213272675871849
          }
        }
      }
    }
  }
}
MOTION
Frames: 5
Frame Time: 0.03333333333333333
-4.924953893741742 -3.0836397700373595 -7.775071811002016 78.24543864498408 4.673163909485393 7.020784677772559 1.8974200450039795 42.473187002223625 6.198221339651788 3.6816564722293394 19.462442941354052 -28.62434869633373 0 0 0 -23.829594197616828 -16.249625385838588 32.27904287092433 -4.635577422935067 -15.312714064000144 -12.80197014519446 0 0 0 0 0 0 -4.580392217439603 1.9443231083716772 -23.38336983346898 -56.626530540885284 41.027101367918945 -36.136382895104646 -3.201056637836734 -4.468699363718445 28.667930732974174 8.227659065911883 -3.8245309735418167 4.009513463707141 0 0 0 0 0 0 0 0 0 0 0 0 0 0 0 0 0 0 0 0 0 0 0 0 0 0 0 0 0 0 0 0 0 0 0 0 0 0 0 0 0 0 0 0 0 18.847652676769822 4.58960544771288 -8.91332194948893 66.09781308613654 37.28684997922143 30.90052448979788 -1.5040669299218032 4.37569026389251 -22.11301266342354 5.971999985190346 2.231675627752121 -1.2759502749824831 0 0 0 0 0 0 0 0 0 0 0 0 0 0 0 0 0 0 0 0 0 0 0 0 0 0 0 0 0 0 0 0 0 0 0 0 0 0 0 0 0 0 0 0 0 45.48419722447395 -58.26916376299581 -52.99623010045232 -19.575783372591957 68.43094197149134 -2.814351039863339 0.09197022403324258 -3.991724138846597 -0.981621570600623 0 0 0 -27.425066648944476 -44.573993366505924 19.578472127481767 -90.56235929372983 41.713030937836955 -109.5274976197251 20.522070528019064 -18.697891217050845 1.5539086481077218 0 0 0
-4.707285346182073 -3.015919926782315 -7.838492099534828 77.42570072659893 6.656302676073577 6.160219915469052 3.78574578438192 41.789788530198365 7.831928321130749 4.661517499489291 22.476580750959805 -31.469273277590894 0 0 0 -28.22755259743446 -19.489072693472366 36.45481683255605 -6.183280085763996 -13.43535720381884 -13.872527199526907 0 0 0 0 0 0 -4.881569759090123 1.9040633348582074 -23.85277356660162 -59.36224193599099 40.41179709620179 -41.57176312416031 -2.9055400568145076 -5.534547001647121 28.06867348173446 7.520404075670026 -3.4357007744600074 5.630326764905023 0 0 0 0 0 0 0 0 0 0 0 0 0 0 0 0 0 0 0 0 0 0 0 0 0 0 0 0 0 0 0 0 0 0 0 0 0 0 0 0 0 0 0 0 0 16.47939934666054 3.599031672972352 -5.96045251740556 68.25925010088686 38.002506920285384 37.7976165701955 -2.0597859316113003 6.359295789527712 -20.791209311160586 5.691995679992869 1.8731852048450948 -0.5950003077131252 0 0 0 0 0 0 0 0 0 0 0 0 0 0 0 0 0 0 0 0 0 0 0 0 0 0 0 0 0 0 0 0 0 0 0 0 0 0 0 0 0 0 0 0 0 48.96099405399349 -55.28073500722467 -55.94546074928945 -27.12494459819027 60.34186924027764 -5.757825997143899 0.08584034389783353 -1.6901121208020793 -1.1956837095755042 0 0 0 -35.92965440604956 -41.566764148411096 26.020951132908195 -90.20080715875366 43.45826630415034 -107.89653409657127 20.77918221362006 -18.274915334059916 1.538306782529002 0 0 0
-4.59603285803777 -2.9469912223712846 -7.878397333413294 78.7255337967999 5.21066449942803 7.037745943231114 3.3118864716978043 41.68047969303813 7.0128397922221914 4.193454261716823 23.090848123839148 -29.21645012181937 0 0 0 -27.659414362179678 -20.69307900393351 33.349710857663396 -7.201864444080919 -13.421391866587934 -13.024665695586295 0 0 0 0 0 0 -4.589628100959445 1.9381525465566112 -24.326784542028857 -57.98491925078738 39.29419818967387 -42.31699349899575 -3.8009956994476495 -5.3777402143213155 28.440300560204197 8.006095943688951 -3.693218113104351 4.72769528347297 0 0 0 0 0 0 0 0 0 0 0 0 0 0 0 0 0 0 0 0 0 0 0 0 0 0 0 0 0 0 0 0 0 0 0 0 0 0 0 0 0 0 0 0 0 16.021207027306268 2.718833192197121 -1.9114356172360705 68.2264376592849 37.68443198108403 43.468020952551456 -1.6131591555967324 10.610909610925265 -20.72609659632972 6.807376624048967 2.695923284648152 -1.5672361804081165 0 0 0 0 0 0 0 0 0 0 0 0 0 0 0 0 0 0 0 0 0 0 0 0 0 0 0 0 0 0 0 0 0 0 0 0 0 0 0 0 0 0 0 0 0 47.581610564698 -53.65094419899078 -54.60306758214348 -27.97859643901991 61.02932624519051 -8.62159433327853 0.07330033577013517 -2.6132872809858108 -0.9129945600229633 0 0 0 -33.7236185612998 -38.997885734301946 21.97239848324346 -88.80644188430836 45.23821625448786 -105.43623272524535 19.836795149622596 -20.94062135435785 2.162324776733464 0 0 0
-4.484780369893468 -2.878062517960254 -7.918302567291759 80.00044770605378 3.745782983022906 7.880444150975027 2.855431709740381 41.58260496518657 6.195138207474968 3.749922626836698 23.721621899062974 -26.95855985350004 0 0 0 -27.017244036322847 -21.866220275397538 30.2067127391676 -8.220034347245326 -13.392771168088982 -12.177268160656102 0 0 0 0 0 0 -4.297972503224861 1.9746540779746435 -24.800625762930096 -56.61047618851437 38.190656376319126 -43.08469169504348 -4.695179999582106 -5.2151748577105055 28.809321992451576 8.49593603418848 -3.9430568183724213 3.8226416257211713 0 0 0 0 0 0 0 0 0 0 0 0 0 0 0 0 0 0 0 0 0 0 0 0 0 0 0 0 0 0 0 0 0 0 0 0 0 0 0 0 0 0 0 0 0 15.502252923547235 1.8731550932333803 2.142040161731342 68.15437750037792 37.37046538053263 49.11466509109833 -1.1539809705433042 14.861881535083644 -20.62562471637601 7.90949382616932 3.5373051984606296 -2.5240125655394903 0 0 0 0 0 0 0 0 0 0 0 0 0 0 0 0 0 0 0 0 0 0 0 0 0 0 0 0 0 0 0 0 0 0 0 0 0 0 0 0 0 0 0 0 0 46.31565419556855 -52.00359670994675 -53.37444680490998 -28.92223377603109 61.69472213748389 -11.569224592515994 0.056186333127446135 -3.536389275799727 -0.6298582209082318 0 0 0 -31.824342792883826 -36.32016457897832 18.189863479059817 -87.25630988549891 46.97240576076799 -102.83355015061412 18.84470210629584 -23.59602843652486 2.84606211351328 0 0 0
-4.3735278817491645 -2.809133813549224 -7.958207801170225 81.25194825677654 2.262737817117913 8.689184076088388 2.416429426147117 41.49653612089276 5.379361471392049 3.331807205638229 24.367962835370413 -24.69483837532524 0 0 0 -26.300808074021404 -23.004557690166564 27.023343391789826 -9.237506865635547 -13.349512616888088 -11.330653327506868 0 0 0 0 0 0 -4.006622345208603 2.0135642571632864 -25.27428658186047 -55.23775393658602 37.10178251991415 -43.87410613942458 -5.5880629605512535 -5.046898732445135 29.175657445880017 8.989822568074363 -4.1851342595803525 2.915203326304156 0 0 0 0 0 0 0 0 0 0 0 0 0 0 0 0 0 0 0 0 0 0 0 0 0 0 0 0 0 0 0 0 0 0 0 0 0 0 0 0 0 0 0 0 0 14.9250016176141 1.0662758473539486 6.201500900610681 68.0442472427572 37.06362326788643 54.73858975531858 -0.6763915631459226 19.11191281356764 -20.486831829921833 8.998503174354559 4.396799745511949 -3.465367515359497 0 0 0 0 0 0 0 0 0 0 0 0 0 0 0 0 0 0 0 0 0 0 0 0 0 0 0 0 0 0 0 0 0 0 0 0 0 0 0 0 0 0 0 0 0 45.14994495776039 -50.34088248117954 -52.246446207575886 -29.958737152462433 62.33560813814467 -14.603964361385824 0.034477961840019555 -4.459395314886357 -0.3461262943349354 0 0 0 -30.2028664730421 -33.55184271086042 14.63922304317976 -85.53683608748007 48.65445176173253 -100.07383298758164 17.795819028962967 -26.239750325042973 3.595783641429241 0 0 0
